# xmcd
#
# Track frame offsets:
#	150
#	10356
#	21473
#	34704
#	47659
#	60929
#	71832
#	85175
#	99421
#	107033
#	124943
#	141483
#	156993
#	169105
#	182691
#	194323
#	215026
#	227328
#	242377
#	259791
#
# Disc length: 3783 seconds
#
# Revision: 0
# Processed by: cddbd v1.5.2PL0 Copyright (c) Steve Scherf et al.
# Submitted via: audiograbber 1.83.01
#
DISCID=150ec514
DTITLE=ICMAG - ICMAG 2002-10
DYEAR=2002
DGENRE=
TTITLE0=Intro Instrumentalt  - Devils and Söhne
TTITLE1=Tom Mix  - Bobby Barnett
TTITLE2=Out Of Her Forever Loving Mind  - Andy Martin
TTITLE3=I Want You  - Road Side
TTITLE4=Baracco  - Devils and Söhne
TTITLE5=My Other Love  - Tom Lambert
TTITLE6=Bob Wills Is Still The King  - Honky Tonk Pickers
TTITLE7=A Safe Place To Land - Kim Dickinson
TTITLE8=The News And Weather  - Mark La Forme
TTITLE9=Cold Day In Daytona  - Michael Tracy White
TTITLE10=D I V O R C E  - Manon´s Dream
TTITLE11=Eli The Cajun Man  - Morgan Blanchard
TTITLE12=The Trucker Song  - Lindsay Morgan
TTITLE13=Wella Wella Alright  - Nevada
TTITLE14=Come On Feer  - Ramsey Kearney
TTITLE15=Indian On The Mountain  - Red Hawk
TTITLE16=Rechts Von Kanal - Emsland Hillbillies
TTITLE17=Lovey Dovey  - Tennessee Heartbreakers
TTITLE18=Balladekönig  - Mark Bender
TTITLE19=4  - Marvell
EXTD=
EXTT0=
EXTT1=
EXTT2=
EXTT3=
EXTT4=
EXTT5=
EXTT6=
EXTT7=
EXTT8=
EXTT9=
EXTT10=
EXTT11=
EXTT12=
EXTT13=
EXTT14=
EXTT15=
EXTT16=
EXTT17=
EXTT18=
EXTT19=
PLAYORDER=
